<?xml version="1.0" standalone="no"?>
<!DOCTYPE svg PUBLIC "-//W3C//DTD SVG 20010904//EN"
 "http://www.w3.org/TR/2001/REC-SVG-20010904/DTD/svg10.dtd">
<svg version="1.0" xmlns="http://www.w3.org/2000/svg"
 width="400.000000pt" height="400.000000pt" viewBox="0 0 400.000000 400.000000"
 preserveAspectRatio="xMidYMid meet" fill="currentColor">

<g transform="translate(0.000000,400.000000) scale(0.100000,-0.100000)"
fill="#fff" stroke="none">
<path d="M473 3975 c-126 -32 -204 -76 -288 -160 -85 -85 -128 -163 -161 -291
l-24 -97 0 -1432 0 -1432 24 -97 c33 -128 76 -206 161 -291 79 -79 156 -124
265 -154 74 -21 88 -21 1555 -21 1467 0 1481 0 1555 21 109 30 186 75 265 154
79 79 124 156 154 265 21 74 21 88 21 1555 0 1467 0 1481 -21 1555 -30 109
-75 186 -154 265 -85 85 -163 128 -291 161 l-97 24 -1436 0 -1436 -1 -92 -24z
m3032 -161 c152 -39 280 -167 320 -319 13 -52 15 -234 15 -1500 0 -1590 3
-1503 -63 -1613 -37 -62 -103 -127 -167 -165 -102 -60 -30 -57 -1605 -57
-1590 0 -1503 -3 -1613 63 -62 37 -127 103 -165 167 -60 102 -57 30 -57 1605
0 1590 -3 1503 63 1613 37 62 103 127 167 165 100 58 27 56 1600 56 1276 1
1453 -1 1505 -15z"/>
<path fill-opacity="" d="M877 3123 c-4 -3 -7 -268 -7 -589 0 -521 2 -582 16 -588 9 -3 220 -6
469 -6 517 0 485 -6 485 85 0 30 5 65 11 78 16 34 60 57 112 57 25 0 57 4 71
10 l26 10 -2 472 -3 473 -586 3 c-322 1 -589 -1 -592 -5z m657 -229 c3 -9 6
-39 6 -69 0 -65 0 -65 167 -65 75 0 124 -4 128 -11 4 -5 4 -21 1 -34 -5 -18
-14 -25 -37 -27 -27 -3 -33 -9 -46 -46 -23 -70 -86 -174 -141 -237 -58 -65
-59 -57 13 -128 66 -66 70 -73 59 -101 -12 -30 -50 -17 -111 39 -34 30 -65 55
-70 55 -5 0 -29 -18 -53 -41 -64 -58 -86 -72 -109 -64 -11 3 -23 15 -26 26 -5
15 8 35 59 85 36 36 66 68 66 72 0 4 -25 39 -56 77 -64 80 -99 137 -131 210
-17 40 -27 51 -50 55 -23 4 -28 10 -28 35 l0 30 125 2 c178 4 170 1 170 77 0
34 3 66 7 69 12 13 51 7 57 -9z"/>
<path fill="#red" d="M1334 2655 c12 -48 137 -231 166 -243 10 -4 113 127 144 182 49 87
51 86 -145 86 l-171 0 6 -25z"/>
<path d="M2236 2974 c-19 -18 -19 -20 -6 -45 9 -15 22 -19 65 -19 136 0 298
-75 411 -188 41 -41 74 -79 74 -83 0 -4 13 -27 29 -51 30 -45 78 -184 67 -195
-3 -4 -21 8 -39 25 -18 18 -42 32 -54 32 -23 0 -37 -25 -26 -43 12 -20 165
-162 177 -165 24 -6 188 170 180 192 -11 28 -51 18 -93 -24 -22 -22 -44 -40
-49 -40 -6 0 -15 22 -21 49 -37 172 -137 327 -276 425 -108 77 -198 114 -336
136 -84 13 -85 13 -103 -6z"/>
<path d="M1925 2068 c-3 -7 -4 -272 -3 -588 l3 -575 588 -3 587 -2 8 22 c4 13
5 277 2 588 l-5 565 -588 3 c-465 2 -589 0 -592 -10z m658 -143 c20 -19 307
-740 307 -769 0 -30 -23 -49 -48 -41 -20 6 -46 57 -77 152 -9 29 -22 56 -28
60 -16 9 -261 16 -322 8 l-51 -6 -28 -82 c-39 -111 -53 -137 -74 -137 -22 0
-42 19 -42 40 0 14 120 325 164 425 7 17 41 101 76 188 67 170 88 198 123 162z"/>
<path d="M2544 1775 c-4 -11 -38 -95 -75 -187 l-67 -168 149 0 c82 0 149 4
149 8 0 4 -30 80 -66 168 -36 87 -69 168 -74 179 l-8 20 -8 -20z"/>
<path d="M952 1707 c-82 -82 -93 -102 -70 -125 18 -18 22 -16 74 33 26 25 51
45 55 45 5 0 11 -12 15 -27 39 -179 164 -357 321 -455 132 -84 235 -119 393
-132 74 -6 93 1 88 35 -2 19 -10 25 -38 27 -42 4 -171 27 -220 40 -87 22 -211
94 -290 168 -51 47 -132 162 -145 204 -4 14 -11 30 -15 35 -11 14 -20 85 -11
85 4 0 23 -16 41 -35 39 -40 82 -45 88 -11 4 21 -166 196 -190 196 -7 0 -50
-37 -96 -83z"/>
</g>
</svg>
